<svg width="32" height="32" viewBox="0 0 32 32" fill="none" xmlns="http://www.w3.org/2000/svg">
<path d="M10.6673 29.3327C11.4037 29.3327 12.0007 28.7357 12.0007 27.9993C12.0007 27.263 11.4037 26.666 10.6673 26.666C9.93094 26.666 9.33398 27.263 9.33398 27.9993C9.33398 28.7357 9.93094 29.3327 10.6673 29.3327Z" stroke="white" stroke-width="2.5" stroke-linecap="round" stroke-linejoin="round"/>
<path d="M25.3333 29.3327C26.0697 29.3327 26.6667 28.7357 26.6667 27.9993C26.6667 27.263 26.0697 26.666 25.3333 26.666C24.597 26.666 24 27.263 24 27.9993C24 28.7357 24.597 29.3327 25.3333 29.3327Z" stroke="white" stroke-width="2.5" stroke-linecap="round" stroke-linejoin="round"/>
<path d="M2.73242 2.73242H5.39909L8.94576 19.2924C9.07586 19.8989 9.41332 20.4411 9.90004 20.8256C10.3868 21.2101 10.9923 21.4129 11.6124 21.3991H24.6524C25.2593 21.3981 25.8477 21.1901 26.3205 20.8095C26.7932 20.4289 27.1219 19.8985 27.2524 19.3058L29.4524 9.39909H6.82576" stroke="white" stroke-width="2.5" stroke-linecap="round" stroke-linejoin="round"/>
</svg>
