<svg width="25" height="25" viewBox="0 0 25 25" fill="none" xmlns="http://www.w3.org/2000/svg">
<path d="M14.501 18.5005V6.50049C14.501 5.97006 14.2903 5.46135 13.9152 5.08627C13.5401 4.7112 13.0314 4.50049 12.501 4.50049H4.50098C3.97054 4.50049 3.46184 4.7112 3.08676 5.08627C2.71169 5.46135 2.50098 5.97006 2.50098 6.50049V17.5005C2.50098 17.7657 2.60633 18.0201 2.79387 18.2076C2.98141 18.3951 3.23576 18.5005 3.50098 18.5005H5.50098" stroke="#872031" stroke-width="1.5" stroke-linecap="round" stroke-linejoin="round"/>
<path d="M15.5 18.5H9.5" stroke="#872031" stroke-width="1.5" stroke-linecap="round" stroke-linejoin="round"/>
<path d="M19.501 18.4995H21.501C21.7662 18.4995 22.0205 18.3942 22.2081 18.2066C22.3956 18.0191 22.501 17.7647 22.501 17.4995V13.8495C22.5006 13.6226 22.423 13.4025 22.281 13.2255L18.801 8.87551C18.7075 8.75839 18.5888 8.66379 18.4538 8.59871C18.3188 8.53363 18.1709 8.49973 18.021 8.49951H14.501" stroke="#872031" stroke-width="1.5" stroke-linecap="round" stroke-linejoin="round"/>
<path d="M17.5 20.5005C18.6046 20.5005 19.5 19.6051 19.5 18.5005C19.5 17.3959 18.6046 16.5005 17.5 16.5005C16.3954 16.5005 15.5 17.3959 15.5 18.5005C15.5 19.6051 16.3954 20.5005 17.5 20.5005Z" stroke="#872031" stroke-width="1.5" stroke-linecap="round" stroke-linejoin="round"/>
<path d="M7.50098 20.5005C8.60555 20.5005 9.50098 19.6051 9.50098 18.5005C9.50098 17.3959 8.60555 16.5005 7.50098 16.5005C6.39641 16.5005 5.50098 17.3959 5.50098 18.5005C5.50098 19.6051 6.39641 20.5005 7.50098 20.5005Z" stroke="#872031" stroke-width="1.5" stroke-linecap="round" stroke-linejoin="round"/>
</svg>
