<svg width="32" height="32" viewBox="0 0 32 32" fill="none" xmlns="http://www.w3.org/2000/svg">
<path opacity="0.5" d="M10.8364 2.95703L13.8314 4.58953L18.3114 4.71203L21.0889 3.08703L21.4839 4.14203C21.4839 4.14203 23.2314 8.85703 23.0989 11.4945C22.9764 13.9645 22.6739 16.1495 20.3964 18.122C18.6814 19.6045 16.9689 19.737 16.9689 19.737L17.0014 24.782C17.0014 24.782 19.2439 24.882 20.5614 25.737C21.7514 26.5095 21.9464 27.2545 21.9464 27.747C21.9464 28.242 21.4839 30.7795 15.8814 30.7145C10.2789 30.6495 9.94644 27.912 9.94644 27.417C9.94644 26.922 10.4764 25.9695 12.0564 25.372C13.5389 24.812 14.8264 24.877 14.8264 24.877V19.6395C14.8264 19.6395 12.7489 19.112 11.1664 17.5945C10.1889 16.657 8.56144 14.5295 8.79394 11.067C8.99394 8.03203 10.8364 2.95703 10.8364 2.95703Z" fill="white"/>
<path opacity="0.7" d="M10.8364 2.95539L12.0239 1.86789L13.8689 1.27539L18.1214 1.30789L20.0664 2.13289L21.0889 3.08789L21.4839 4.14289C21.4839 4.14289 23.2314 8.85789 23.0989 11.4954C22.9764 13.9654 22.6739 16.1504 20.3964 18.1229C18.6814 19.6054 16.9689 19.7379 16.9689 19.7379L16.9839 24.7729C16.9839 24.7729 19.2389 25.0304 20.5589 25.8879C21.7489 26.6604 21.9464 27.2554 21.9464 27.7504C21.9464 28.2454 21.4839 30.7829 15.8814 30.7179C10.2789 30.6529 9.94644 27.9154 9.94644 27.4204C9.94644 26.9254 10.4764 25.9729 12.0564 25.3754C13.5389 24.8154 14.8089 24.7754 14.8089 24.7754L14.8264 19.6404C14.8264 19.6404 12.7489 19.1129 11.1664 17.5954C10.1889 16.6579 8.56144 14.5304 8.79394 11.0679C8.99394 8.03039 10.8364 2.95539 10.8364 2.95539Z" fill="#E0E0E0"/>
<path d="M14.6468 19.7561C14.5743 19.7336 12.9543 19.3411 11.8543 18.4811C9.71434 16.8061 8.69934 14.9586 8.56934 12.4936C8.49184 11.0386 9.08934 8.56609 9.51434 6.83359C9.94934 5.06859 10.4743 3.74859 10.4793 3.73359C10.4793 3.73359 10.5493 3.53359 10.6243 3.57109C10.7818 3.65109 10.6243 4.34609 10.6243 4.34609C10.5043 4.79109 10.3893 5.21109 9.96434 6.95109C9.54684 8.65359 8.99934 11.0761 9.07184 12.4636C9.19434 14.7711 10.1468 16.5061 12.1643 18.0836C13.1893 18.8861 14.4918 19.2011 14.6693 19.2861C14.8468 19.3711 15.0768 19.4111 15.0443 19.6386C15.0093 19.8736 14.6468 19.7561 14.6468 19.7561Z" fill="#D4D4D4"/>
<path d="M17.1575 19.8204C16.97 19.8379 16.7875 19.8054 16.7725 19.6229C16.7525 19.3979 17.0325 19.3829 17.0325 19.3829C17.2175 19.3154 18.165 19.2379 19.1025 18.6754C21.745 17.0904 23.025 14.6029 22.86 11.3779C22.63 6.93039 20.885 3.54289 20.8675 3.51039L21.1975 3.02539C21.215 3.06039 23.1225 6.79539 23.36 11.3529C23.5375 14.7754 22.26 17.4279 19.4475 19.1129C18.4225 19.7279 17.255 19.8104 17.1575 19.8204Z" fill="#9E9E9E"/>
<path d="M16.2828 5.47734C16.2203 5.47734 16.1578 5.47734 16.0953 5.47484C13.8953 5.44234 12.0153 4.82234 11.1053 3.94234C10.7803 3.62984 10.7353 3.41234 10.7178 3.06734C10.6853 2.47484 11.3903 0.994844 15.9828 1.01984C19.0103 1.03484 21.2578 1.97234 21.2703 3.14734C21.2753 3.50234 21.2128 3.79234 20.8753 4.12734C20.0128 4.97484 18.3028 5.47734 16.2828 5.47734ZM15.7578 1.64234C12.7478 1.66734 11.4578 2.49734 11.4703 3.03484C11.4728 3.17234 11.4828 3.24984 11.6478 3.41984C12.2478 4.04484 13.8603 4.68984 16.1078 4.72234C18.3478 4.75984 19.7703 4.15984 20.3503 3.58734C20.5378 3.40484 20.6328 3.34484 20.6328 3.19984C20.6328 2.63234 19.4153 1.71484 16.1953 1.64484C16.0478 1.64484 15.9003 1.64234 15.7578 1.64234Z" fill="#C8C8C8"/>
<path d="M16.3298 4.93562C16.1273 4.93562 15.9148 4.93062 15.6948 4.91812C12.1948 4.73312 11.5148 3.33062 11.4823 3.26562C11.4223 3.14062 11.3948 2.89812 11.4898 2.87062C11.6173 2.83312 11.6848 2.94562 11.8148 3.06562C12.0248 3.26062 12.7823 4.27312 15.9448 4.34562C19.0448 4.41812 20.0423 3.47312 20.2248 3.30812C20.3623 3.18312 20.5073 2.92312 20.6223 2.99812C20.7373 3.07312 20.6773 3.37312 20.6098 3.49062C20.5048 3.67062 19.7223 4.93562 16.3298 4.93562Z" fill="white"/>
<path d="M15.9484 19.9336C15.4109 19.9336 15.5209 20.3461 15.4934 23.0886C15.4734 25.2761 15.7009 25.6661 15.9259 25.6886C16.1534 25.7086 16.3584 25.5436 16.3584 23.2336C16.3609 20.5536 16.4434 19.9336 15.9484 19.9336Z" fill="#9E9E9E"/>
<path d="M16.7779 25.01C16.5729 25.0275 16.7954 25.475 16.5179 25.83C16.2979 26.11 15.8854 26.2775 15.9029 26.5925C15.9204 26.91 17.5404 26.705 17.5404 26.1075C17.5404 25.875 17.3704 25.7125 17.2054 25.4925C17.0404 25.2725 16.8804 25 16.7779 25.01Z" fill="white"/>
<path d="M13.0371 27.264C13.0371 27.264 13.7496 28.219 15.9446 28.239C18.1596 28.259 18.7071 27.589 18.7896 27.324C18.8496 27.124 18.0996 26.0765 18.0071 26.094C17.9146 26.1115 17.6721 27.084 15.9596 27.0215C14.2471 26.959 14.2021 26.2865 14.0646 26.159C13.9546 26.0565 13.0371 27.264 13.0371 27.264Z" fill="#9E9E9E"/>
<path d="M10.9871 26.7978C10.4321 26.8703 10.4071 27.5153 10.7646 28.1003C11.4896 29.2928 13.8971 30.1078 14.0221 29.4603C14.1346 28.8828 12.8696 28.7353 12.9971 27.7653C13.0896 27.0578 14.3571 26.4053 14.0021 26.0328C13.6496 25.6603 13.1096 26.5353 12.3821 26.7028C11.7471 26.8503 11.4146 26.7428 10.9871 26.7978Z" fill="white"/>
<path d="M19.0295 25.851C18.7195 26.0985 19.6445 26.3535 19.607 27.116C19.5695 27.8785 18.807 28.2085 18.9545 28.4185C19.177 28.736 20.4895 28.0635 20.4445 27.021C20.407 26.1685 19.3095 25.6285 19.0295 25.851Z" fill="#CACACA"/>
<path d="M18.6957 29.37C18.8082 29.7225 20.2882 29.57 20.9857 28.57C21.7107 27.5275 21.2082 26.6525 20.9307 26.745C20.6507 26.8375 21.0432 27.49 20.3357 28.1775C19.6257 28.865 18.5707 28.975 18.6957 29.37Z" fill="white"/>
<path d="M9.94987 27.3827C9.88487 27.3227 9.76737 27.9127 9.96487 28.3977C10.1324 28.8077 10.9899 30.9477 16.1274 30.9852C21.8424 31.0277 22.1349 28.5777 22.0624 27.8927C22.0149 27.4402 21.9274 27.2852 21.8824 27.2852C21.8399 27.2827 21.7949 27.6852 21.7574 27.9027C21.6374 28.5827 20.9674 30.2977 16.2199 30.3352C11.8999 30.3702 10.6349 28.6027 10.4124 28.2877C10.2549 28.0627 9.98737 27.4177 9.94987 27.3827Z" fill="#9E9E9E"/>
<path d="M11.273 5.01953C11.273 5.01953 10.9205 6.01203 10.4755 8.00203C10.093 9.71203 9.93555 10.7995 9.93555 10.7995C9.93555 10.7995 10.7405 10.3995 11.638 10.1645C12.4505 9.95203 13.153 9.99453 13.153 9.99453C13.153 9.99453 13.1305 8.69203 13.238 7.75203C13.3255 6.97703 13.5155 5.97953 13.5155 5.97953C13.5155 5.97953 12.8105 5.80953 12.383 5.61703C11.9555 5.42453 11.273 5.01953 11.273 5.01953Z" fill="white"/>
</svg>
