<svg width="24" height="24" viewBox="0 0 24 24" fill="none" xmlns="http://www.w3.org/2000/svg">
<path d="M12.0995 18.55L11.9995 18.65L11.8895 18.55C7.13951 14.24 3.99951 11.39 3.99951 8.5C3.99951 6.5 5.49951 5 7.49951 5C9.03951 5 10.5395 6 11.0695 7.36L12.9295 7.36C13.4595 6 14.9595 5 16.4995 5C18.4995 5 19.9995 6.5 19.9995 8.5C19.9995 11.39 16.8595 14.24 12.0995 18.55ZM16.4995 3C14.7595 3 13.0895 3.81 11.9995 5.08C10.9095 3.81 9.23951 3 7.49951 3C4.41951 3 1.99951 5.41 1.99951 8.5C1.99951 12.27 5.39951 15.36 10.5495 20.03L11.9995 21.35L13.4495 20.03C18.5995 15.36 21.9995 12.27 21.9995 8.5C21.9995 5.41 19.5795 3 16.4995 3Z" fill="#1C1C1C"/>
</svg>
