<svg width="18" height="19" viewBox="0 0 18 19" fill="none" xmlns="http://www.w3.org/2000/svg">
<path d="M14.248 9.23242H9.74805V4.73242C9.74805 4.53351 9.66903 4.34274 9.52838 4.20209C9.38772 4.06144 9.19696 3.98242 8.99805 3.98242C8.79913 3.98242 8.60837 4.06144 8.46772 4.20209C8.32706 4.34274 8.24805 4.53351 8.24805 4.73242V9.23242H3.74805C3.54913 9.23242 3.35837 9.31144 3.21772 9.45209C3.07706 9.59274 2.99805 9.78351 2.99805 9.98242C2.99805 10.1813 3.07706 10.3721 3.21772 10.5128C3.35837 10.6534 3.54913 10.7324 3.74805 10.7324H8.24805V15.2324C8.24805 15.4313 8.32706 15.6221 8.46772 15.7628C8.60837 15.9034 8.79913 15.9824 8.99805 15.9824C9.19696 15.9824 9.38772 15.9034 9.52838 15.7628C9.66903 15.6221 9.74805 15.4313 9.74805 15.2324V10.7324H14.248C14.447 10.7324 14.6377 10.6534 14.7784 10.5128C14.919 10.3721 14.998 10.1813 14.998 9.98242C14.998 9.78351 14.919 9.59274 14.7784 9.45209C14.6377 9.31144 14.447 9.23242 14.248 9.23242Z" fill="#16AC7A"/>
</svg>
