<svg width="24" height="24" viewBox="0 0 24 24" fill="none" xmlns="http://www.w3.org/2000/svg">
<path d="M20.0002 10C20.0002 16 12.0002 22 12.0002 22C12.0002 22 4.00024 16 4.00024 10C4.00024 7.87827 4.8431 5.84344 6.34339 4.34315C7.84368 2.84285 9.87851 2 12.0002 2C14.122 2 16.1568 2.84285 17.6571 4.34315C19.1574 5.84344 20.0002 7.87827 20.0002 10Z" stroke="#16AC7A" stroke-width="1.5" stroke-linecap="round" stroke-linejoin="round"/>
<path d="M12 13C13.6569 13 15 11.6569 15 10C15 8.34315 13.6569 7 12 7C10.3431 7 9 8.34315 9 10C9 11.6569 10.3431 13 12 13Z" stroke="#16AC7A" stroke-width="1.5" stroke-linecap="round" stroke-linejoin="round"/>
</svg>
