<svg width="24" height="25" viewBox="0 0 24 25" fill="none" xmlns="http://www.w3.org/2000/svg">
<path d="M17 14.9844V2.98438" stroke="#872031" stroke-width="2" stroke-linecap="round" stroke-linejoin="round"/>
<path d="M9.00004 19.1044L10 14.9844H4.17004C3.85955 14.9844 3.55333 14.9121 3.27562 14.7732C2.99791 14.6344 2.75634 14.4328 2.57004 14.1844C2.38375 13.936 2.25785 13.6476 2.2023 13.3421C2.14676 13.0367 2.16311 12.7224 2.25004 12.4244L4.58004 4.42438C4.70121 4.00894 4.95385 3.64402 5.30004 3.38438C5.64624 3.12473 6.0673 2.98437 6.50004 2.98438H20C20.5305 2.98438 21.0392 3.19509 21.4143 3.57016C21.7893 3.94523 22 4.45394 22 4.98438V12.9844C22 13.5148 21.7893 14.0235 21.4143 14.3986C21.0392 14.7737 20.5305 14.9844 20 14.9844H17.24C16.868 14.9846 16.5033 15.0886 16.1871 15.2847C15.8709 15.4807 15.6156 15.7612 15.45 16.0944L12 22.9844C11.5285 22.9785 11.0643 22.8662 10.6422 22.6558C10.2202 22.4454 9.85112 22.1423 9.56264 21.7692C9.27416 21.3961 9.07373 20.9626 8.97631 20.5012C8.87889 20.0397 8.887 19.5622 9.00004 19.1044Z" stroke="#872031" stroke-width="2" stroke-linecap="round" stroke-linejoin="round"/>
</svg>
