<svg width="24" height="25" viewBox="0 0 24 25" fill="none" xmlns="http://www.w3.org/2000/svg">
<path d="M14.001 18.5005V6.50046C14.001 5.97002 13.7903 5.46132 13.4152 5.08624C13.0401 4.71117 12.5314 4.50046 12.001 4.50046H4.00098C3.47054 4.50046 2.96184 4.71117 2.58676 5.08624C2.21169 5.46132 2.00098 5.97002 2.00098 6.50046V17.5005C2.00098 17.7657 2.10633 18.02 2.29387 18.2076C2.48141 18.3951 2.73576 18.5005 3.00098 18.5005H5.00098" stroke="#16AC7A" stroke-width="1.5" stroke-linecap="round" stroke-linejoin="round"/>
<path d="M15 18.5H9" stroke="#16AC7A" stroke-width="1.5" stroke-linecap="round" stroke-linejoin="round"/>
<path d="M19.001 18.4995H21.001C21.2662 18.4995 21.5205 18.3941 21.7081 18.2066C21.8956 18.0191 22.001 17.7647 22.001 17.4995V13.8495C22.0006 13.6225 21.923 13.4025 21.781 13.2255L18.301 8.87548C18.2075 8.75836 18.0888 8.66376 17.9538 8.59868C17.8188 8.5336 17.6709 8.49969 17.521 8.49948H14.001" stroke="#16AC7A" stroke-width="1.5" stroke-linecap="round" stroke-linejoin="round"/>
<path d="M17 20.5005C18.1046 20.5005 19 19.605 19 18.5005C19 17.3959 18.1046 16.5005 17 16.5005C15.8954 16.5005 15 17.3959 15 18.5005C15 19.605 15.8954 20.5005 17 20.5005Z" stroke="#16AC7A" stroke-width="1.5" stroke-linecap="round" stroke-linejoin="round"/>
<path d="M7.00098 20.5005C8.10555 20.5005 9.00098 19.605 9.00098 18.5005C9.00098 17.3959 8.10555 16.5005 7.00098 16.5005C5.89641 16.5005 5.00098 17.3959 5.00098 18.5005C5.00098 19.605 5.89641 20.5005 7.00098 20.5005Z" stroke="#16AC7A" stroke-width="1.5" stroke-linecap="round" stroke-linejoin="round"/>
</svg>
