<svg width="25" height="24" viewBox="0 0 25 24" fill="none" xmlns="http://www.w3.org/2000/svg">
<path d="M19.5 7.28571L17.5 7.28571C17.5 4.88571 15.3 3 12.5 3C9.7 3 7.5 4.88571 7.5 7.28571L5.5 7.28571C4.4 7.28571 3.5 8.05714 3.5 9L3.5 19.2857C3.5 20.2286 4.4 21 5.5 21L19.5 21C20.6 21 21.5 20.2286 21.5 19.2857L21.5 9C21.5 8.05714 20.6 7.28571 19.5 7.28571ZM12.5 4.71429C14.2 4.71429 15.5 5.82857 15.5 7.28571L9.5 7.28571C9.5 5.82857 10.8 4.71429 12.5 4.71429ZM19.5 19.2857L5.5 19.2857L5.5 9L19.5 9L19.5 19.2857ZM12.5 12.4286C10.8 12.4286 9.5 11.3143 9.5 9.85714L7.5 9.85714C7.5 12.2571 9.7 14.1429 12.5 14.1429C15.3 14.1429 17.5 12.2571 17.5 9.85714L15.5 9.85714C15.5 11.3143 14.2 12.4286 12.5 12.4286Z" fill="#1C1C1C"/>
</svg>
