<svg width="32" height="32" viewBox="0 0 32 32" fill="none" xmlns="http://www.w3.org/2000/svg">
<path d="M9.39962 5L6.09961 9.40001V24.8001C6.09961 25.3835 6.33139 25.9431 6.74398 26.3557C7.15656 26.7683 7.71614 27.0001 8.29962 27.0001H23.6997C24.2831 27.0001 24.8427 26.7683 25.2553 26.3557C25.6679 25.9431 25.8997 25.3835 25.8997 24.8001V9.40001L22.5997 5H9.39962Z" stroke="white" stroke-width="2" stroke-linecap="round" stroke-linejoin="round"/>
<path d="M6.09961 9.39941H25.8997" stroke="white" stroke-width="2" stroke-linecap="round" stroke-linejoin="round"/>
<path d="M20.3996 13.7988C20.3996 14.9658 19.9361 16.0849 19.1109 16.9101C18.2857 17.7353 17.1666 18.1988 15.9996 18.1988C14.8327 18.1988 13.7135 17.7353 12.8883 16.9101C12.0632 16.0849 11.5996 14.9658 11.5996 13.7988" stroke="white" stroke-width="2" stroke-linecap="round" stroke-linejoin="round"/>
</svg>
