<svg width="24" height="24" viewBox="0 0 24 24" fill="none" xmlns="http://www.w3.org/2000/svg">
<path d="M8.00049 21.9995C8.55277 21.9995 9.00049 21.5518 9.00049 20.9995C9.00049 20.4472 8.55277 19.9995 8.00049 19.9995C7.4482 19.9995 7.00049 20.4472 7.00049 20.9995C7.00049 21.5518 7.4482 21.9995 8.00049 21.9995Z" stroke="#16AC7A" stroke-width="2" stroke-linecap="round" stroke-linejoin="round"/>
<path d="M19 21.9995C19.5523 21.9995 20 21.5518 20 20.9995C20 20.4472 19.5523 19.9995 19 19.9995C18.4477 19.9995 18 20.4472 18 20.9995C18 21.5518 18.4477 21.9995 19 21.9995Z" stroke="#16AC7A" stroke-width="2" stroke-linecap="round" stroke-linejoin="round"/>
<path d="M2.04932 2.04932H4.04932L6.70932 14.4693C6.8069 14.9242 7.05999 15.3308 7.42503 15.6192C7.79007 15.9076 8.24422 16.0597 8.70932 16.0493H18.4893C18.9445 16.0486 19.3858 15.8926 19.7403 15.6072C20.0949 15.3217 20.3415 14.9238 20.4393 14.4793L22.0893 7.04932H5.11932" stroke="#16AC7A" stroke-width="2" stroke-linecap="round" stroke-linejoin="round"/>
</svg>
