<svg width="24" height="25" viewBox="0 0 24 25" fill="none" xmlns="http://www.w3.org/2000/svg">
<path d="M22 17.5C22 18.0304 21.7893 18.5391 21.4142 18.9142C21.0391 19.2893 20.5304 19.5 20 19.5H4C3.46957 19.5 2.96086 19.2893 2.58579 18.9142C2.21071 18.5391 2 18.0304 2 17.5V10C2 7.5 4 5.5 6.5 5.5H18C20.2 5.5 22 7.3 22 9.5V17.5Z" stroke="#872031" stroke-width="1.5" stroke-linecap="round" stroke-linejoin="round"/>
<path d="M17 11L17 8L19 8" stroke="#872031" stroke-width="1.5" stroke-linecap="round" stroke-linejoin="round"/>
<path d="M6.5 5.5C9 5.5 11 7.5 11 10V17.5C11 18.0304 10.7893 18.5391 10.4142 18.9142C10.0391 19.2893 9.53043 19.5 9 19.5" stroke="#872031" stroke-width="1.5" stroke-linecap="round" stroke-linejoin="round"/>
<path d="M6 10.5H7" stroke="#872031" stroke-width="1.5" stroke-linecap="round" stroke-linejoin="round"/>
</svg>
