<svg width="100" height="40" viewBox="0 0 100 40" fill="none" xmlns="http://www.w3.org/2000/svg">
<path d="M0.0266928 1.74973H16.9479V2.36847C15.3697 2.36847 14.2936 2.48505 13.7197 2.7182C13.2355 2.93341 12.8409 3.28313 12.536 3.76737C12.2311 4.2516 12.0787 4.7986 12.0787 5.40837C12.0787 6.16162 12.3656 7.20182 12.9395 8.52898L13.639 10.1969L22.0054 30.6422L27.8431 13.0216C28.5964 10.7618 28.973 9.07598 28.973 7.96404C28.973 7.13905 28.8205 6.34097 28.5157 5.56978C28.2287 4.78067 27.8431 4.14399 27.3589 3.65976C26.8926 3.19346 26.3546 2.86167 25.7448 2.66439C25.1529 2.46711 24.3907 2.36847 23.4581 2.36847V1.74973H40.756V2.36847C39.6978 2.36847 38.9266 2.40434 38.4424 2.47608C37.9761 2.54782 37.5367 2.70026 37.1242 2.93341C36.5862 3.25623 36.1468 3.72253 35.806 4.3323C35.4832 4.92414 35.3218 5.56978 35.3218 6.26923C35.3218 6.91487 35.5729 8.03578 36.0751 9.63195L42.6929 30.965L50.0909 12.8064C51.2387 10.0265 51.8126 7.87437 51.8126 6.34993C51.8126 4.75376 51.2835 3.62389 50.2254 2.96031C49.5797 2.56575 48.6023 2.36847 47.2931 2.36847V1.74973H59.7486V2.36847C58.547 2.49402 57.6323 2.72716 57.0046 3.06792C56.3949 3.39074 55.7851 3.99155 55.1753 4.87034C54.2786 6.12575 53.1577 8.39447 51.8126 11.6765L40.756 38.4706H39.653L30.076 9.82026L20.3644 38.4706H19.1538L7.12876 9.52434L6.32171 7.56051C5.76574 6.23336 5.29944 5.27386 4.92281 4.68203C4.54619 4.09019 4.08886 3.62389 3.55082 3.28313C3.1204 2.99618 2.6541 2.78993 2.15193 2.66439C1.64977 2.53885 0.941353 2.44021 0.0266928 2.36847V1.74973ZM59.6012 38.4706V37.825C61.4126 37.825 62.8115 37.3139 63.7979 36.2916C64.3538 35.7177 64.7305 34.9913 64.9277 34.1126C65.143 33.2158 65.2506 31.8528 65.2506 30.0235V10.1969C65.2506 8.29583 65.134 6.89694 64.9008 6.00021C64.6856 5.08555 64.2731 4.34127 63.6634 3.76737C63.1612 3.30107 62.5963 2.96031 61.9685 2.7451C61.3588 2.52988 60.5697 2.40434 59.6012 2.36847V1.74973H76.7914V2.36847C75.805 2.42228 74.998 2.55679 74.3703 2.772C73.7425 2.98721 73.1866 3.32797 72.7023 3.79427C72.0926 4.38611 71.6801 5.13039 71.4649 6.02711C71.2497 6.92384 71.142 8.31376 71.142 10.1969V25.7192C71.142 28.1045 71.2048 29.88 71.3304 31.0458C71.4559 32.2115 71.698 33.162 72.0567 33.8973C72.6844 35.1886 73.617 36.1392 74.8545 36.7489C76.092 37.3408 77.733 37.6367 79.7775 37.6367C81.9117 37.6367 83.7052 37.3587 85.1579 36.8027C86.6285 36.2288 87.8301 35.35 88.7627 34.1664C89.3904 33.3593 89.9015 32.4446 90.2961 31.4224C90.7086 30.4001 91.0852 29.055 91.426 27.3871L92.0716 27.4409L91.7219 38.4706H59.6012Z" fill="#02402B"/>
<path d="M83.0277 6.8148C81.4832 6.79357 80.2293 7.99561 80.2078 9.52117C80.2001 10.0679 80.3525 10.5773 80.6213 11.0074C80.925 10.9452 81.2347 10.9158 81.5448 10.9197C82.606 10.9343 83.5738 11.3336 84.3167 11.9793C85.1718 11.5224 85.7534 10.6333 85.768 9.5976C85.7895 8.07203 84.5724 6.83603 83.0277 6.8148ZM78.2594 8.24974C76.7149 8.22851 75.4609 9.43063 75.4394 10.9563C75.4213 12.239 76.28 13.3202 77.4721 13.6442C77.8098 12.782 78.4245 12.0558 79.2061 11.5701C78.9354 11.0782 78.7668 10.5379 78.71 9.98086C78.6533 9.42382 78.7096 8.86119 78.8757 8.3259C78.6737 8.27835 78.4671 8.25286 78.2594 8.24974ZM89.2113 9.33882C87.6669 9.31759 86.413 10.5197 86.3915 12.0453C86.3876 12.3259 86.4252 12.5971 86.4995 12.8523C86.8429 12.7719 87.195 12.7338 87.5479 12.7388C88.8648 12.7569 90.0385 13.3657 90.8158 14.3043C91.4954 13.8138 91.9389 13.0243 91.9516 12.1217C91.9731 10.5963 90.756 9.36005 89.2113 9.33882ZM81.5236 12.4199C79.9791 12.3987 78.725 13.6035 78.7035 15.129C78.6821 16.6546 79.9019 17.8934 81.4462 17.9146C82.9906 17.9358 84.2448 16.7311 84.2663 15.2055C84.2878 13.6799 83.0682 12.4412 81.5236 12.4199ZM93.4765 13.1489C93.4282 13.1482 93.3794 13.1477 93.3318 13.1495C93.063 14.1686 92.4184 15.038 91.5568 15.6093C91.7174 16.0704 91.7956 16.5555 91.788 17.043C91.7833 17.3761 91.7362 17.6993 91.6576 18.0098C92.1287 18.3969 92.7333 18.6318 93.399 18.641C94.9436 18.6622 96.1976 17.4575 96.2191 15.9319C96.2405 14.4063 95.0211 13.1701 93.4765 13.1489ZM87.5266 14.239C86.8625 14.2299 86.2518 14.4479 85.7705 14.8195C85.7816 14.954 85.7871 15.0889 85.7851 15.2264C85.7713 16.2061 85.4188 17.1053 84.8392 17.8181C85.1887 18.9174 86.2132 19.714 87.4491 19.731C87.8147 19.7374 88.178 19.6723 88.5181 19.5394C88.8581 19.4064 89.1681 19.2083 89.4303 18.9565C89.6924 18.7047 89.9015 18.4041 90.0455 18.0721C90.1895 17.74 90.2655 17.3831 90.2692 17.0219C90.2907 15.4964 89.0711 14.2602 87.5266 14.239ZM75.7894 14.9685C74.2449 14.9473 72.9935 16.152 72.972 17.6777C72.9585 18.6376 73.4363 19.4825 74.1767 19.9828C74.5555 18.3708 75.8678 17.1116 77.5091 16.7813C77.3195 16.3301 77.2111 15.8497 77.1887 15.3617C76.7658 15.1103 76.2829 14.9746 75.7894 14.9685ZM78.404 18.194C76.8593 18.1728 75.6054 19.3748 75.5839 20.9004C75.5774 21.2615 75.6434 21.6204 75.7779 21.9562C75.9125 22.2921 76.1131 22.5983 76.368 22.8573C76.623 23.1162 76.9273 23.3227 77.2635 23.465C77.5996 23.6072 77.9609 23.6823 78.3266 23.6859C79.8709 23.7072 81.1224 22.5024 81.1439 20.9768C81.1526 20.3583 80.9587 19.7877 80.621 19.3259C79.8115 19.1611 79.0673 18.7693 78.4775 18.1974C78.4531 18.1964 78.4285 18.1943 78.404 18.194ZM83.6281 18.8452C83.2277 19.0747 82.7921 19.2382 82.3384 19.3294C82.5537 19.8443 82.6712 20.4073 82.6629 20.9977C82.6506 21.8674 82.371 22.6746 81.9032 23.3435C82.4019 23.8818 83.1176 24.221 83.9207 24.232C84.2863 24.2384 84.6495 24.1732 84.9896 24.0403C85.3296 23.9074 85.6396 23.7093 85.9017 23.4574C86.1638 23.2056 86.3729 22.905 86.5169 22.573C86.6609 22.241 86.7369 21.8841 86.7406 21.5229C86.7423 21.4003 86.7341 21.2797 86.7202 21.1613C85.3587 20.9165 84.22 20.0345 83.6281 18.8452ZM91.0206 19.4011C90.383 20.3058 89.3982 20.9533 88.2649 21.1599C88.6584 22.1789 89.6457 22.9027 90.8237 22.9189C92.3683 22.9401 93.6223 21.738 93.6438 20.2125C93.6441 20.1873 93.6426 20.1621 93.6423 20.1371C93.5548 20.1412 93.4666 20.1423 93.378 20.141C92.5046 20.129 91.6942 19.857 91.0206 19.4011ZM87.8775 23.2223C87.4915 24.0635 86.8412 24.7594 86.0231 25.2068C86.3302 26.374 87.3891 27.233 88.6745 27.2507C90.2191 27.2719 91.4706 26.0698 91.4921 24.5441C91.4929 24.4871 91.4919 24.4297 91.4893 24.3735C91.2653 24.4061 91.036 24.4225 90.8028 24.4193C89.6675 24.4037 88.6382 23.9484 87.8775 23.2223ZM80.8443 24.4053C80.3631 24.7424 79.8166 24.9776 79.239 25.0959C79.167 25.3367 79.1285 25.5861 79.1245 25.8371C79.103 27.3629 80.32 28.599 81.8645 28.6203C83.409 28.6415 84.6631 27.4393 84.6846 25.9136C84.6857 25.8328 84.6834 25.7517 84.6777 25.6726C84.4248 25.7153 84.1647 25.7359 83.8994 25.7322C82.6985 25.7157 81.615 25.2071 80.8443 24.4053ZM75.8626 24.3871C75.6473 24.7713 75.5232 25.212 75.5165 25.6848C75.495 27.2103 76.7147 28.4465 78.2592 28.4678C78.3399 28.4689 78.4191 28.4664 78.498 28.461C77.9263 27.7285 77.5915 26.8085 77.6055 25.8163C77.6088 25.5824 77.6332 25.3534 77.6737 25.1299C77.0198 25.0244 76.3998 24.77 75.8626 24.3871ZM85.8136 27.633C85.7126 27.8501 85.5933 28.0583 85.4569 28.2555C86.275 28.9833 86.8096 30.015 86.8766 31.1633C88.3003 31.1298 89.4508 30.0536 89.5743 28.6635C89.2767 28.7238 88.9689 28.7556 88.6533 28.7512C87.56 28.7362 86.565 28.3129 85.8136 27.633ZM84.4001 29.325C83.6794 29.8363 82.7943 30.1335 81.8434 30.1204C81.3197 30.1134 80.8018 30.011 80.3157 29.8184C80.0022 30.256 79.8142 30.7885 79.8061 31.3697C79.7846 32.8953 81.0016 34.134 82.5461 34.1552C82.9118 34.1616 83.2751 34.0965 83.6151 33.9636C83.9551 33.8306 84.2651 33.6325 84.5273 33.3807C84.7894 33.1289 84.9985 32.8283 85.1425 32.4962C85.2865 32.1642 85.3625 31.8073 85.3662 31.4461C85.3782 30.5943 85.0022 29.8354 84.4001 29.325Z" fill="#872031"/>
<path d="M76.7851 2.37108C76.7604 2.37005 76.7539 1.75122 76.7851 1.74998C77.6911 1.71401 81.405 2.12114 83.1723 3.11077C86.0657 4.73099 87.3961 6.1152 87.8876 7.74264C87.8945 7.76561 85.9628 7.55428 85.9628 7.55428C85.9628 7.55428 84.3387 2.68667 76.7851 2.37108Z" fill="#872031"/>
</svg>
