<svg width="32" height="32" viewBox="0 0 32 32" fill="none" xmlns="http://www.w3.org/2000/svg">
<path d="M9.40059 5L6.10059 9.40001V24.8001C6.10059 25.3835 6.33237 25.9431 6.74495 26.3557C7.15753 26.7683 7.71711 27.0001 8.30059 27.0001H23.7006C24.2841 27.0001 24.8437 26.7683 25.2563 26.3557C25.6689 25.9431 25.9006 25.3835 25.9006 24.8001V9.40001L22.6006 5H9.40059Z" stroke="#02402B" stroke-width="2" stroke-linecap="round" stroke-linejoin="round"/>
<path d="M6.10059 9.39844H25.9006" stroke="#02402B" stroke-width="2" stroke-linecap="round" stroke-linejoin="round"/>
<path d="M20.4006 13.7988C20.4006 14.9658 19.937 16.0849 19.1119 16.9101C18.2867 17.7353 17.1676 18.1988 16.0006 18.1988C14.8336 18.1988 13.7145 17.7353 12.8893 16.9101C12.0642 16.0849 11.6006 14.9658 11.6006 13.7988" stroke="#02402B" stroke-width="2" stroke-linecap="round" stroke-linejoin="round"/>
</svg>
