<svg width="24" height="24" viewBox="0 0 24 24" fill="none" xmlns="http://www.w3.org/2000/svg">
<path opacity="0.5" d="M8.12684 2.21875L10.3731 3.44313L13.7331 3.535L15.8162 2.31625L16.1125 3.1075C16.1125 3.1075 17.4231 6.64375 17.3237 8.62188C17.2318 10.4744 17.005 12.1131 15.2968 13.5925C14.0106 14.7044 12.7262 14.8037 12.7262 14.8037L12.7506 18.5875C12.7506 18.5875 14.4325 18.6625 15.4206 19.3037C16.3131 19.8831 16.4593 20.4419 16.4593 20.8112C16.4593 21.1825 16.1125 23.0856 11.9106 23.0369C7.70871 22.9881 7.45934 20.935 7.45934 20.5637C7.45934 20.1925 7.85684 19.4781 9.04184 19.03C10.1537 18.61 11.1193 18.6588 11.1193 18.6588V14.7306C11.1193 14.7306 9.56121 14.335 8.37434 13.1969C7.64121 12.4937 6.42059 10.8981 6.59496 8.30125C6.74496 6.025 8.12684 2.21875 8.12684 2.21875Z" fill="white"/>
<path opacity="0.7" d="M8.12684 2.21703L9.01746 1.40141L10.4012 0.957031L13.5906 0.981406L15.0493 1.60016L15.8162 2.31641L16.1125 3.10766C16.1125 3.10766 17.4231 6.64391 17.3237 8.62203C17.2318 10.4745 17.005 12.1133 15.2968 13.5927C14.0106 14.7045 12.7262 14.8039 12.7262 14.8039L12.7375 18.5802C12.7375 18.5802 14.4287 18.7733 15.4187 19.4164C16.3112 19.9958 16.4593 20.442 16.4593 20.8133C16.4593 21.1845 16.1125 23.0877 11.9106 23.0389C7.70871 22.9902 7.45934 20.937 7.45934 20.5658C7.45934 20.1945 7.85684 19.4802 9.04184 19.032C10.1537 18.612 11.1062 18.582 11.1062 18.582L11.1193 14.7308C11.1193 14.7308 9.56121 14.3352 8.37434 13.197C7.64121 12.4939 6.42059 10.8983 6.59496 8.30141C6.74496 6.02328 8.12684 2.21703 8.12684 2.21703Z" fill="#E0E0E0"/>
<path d="M10.9851 14.818C10.9308 14.8012 9.71576 14.5068 8.89076 13.8618C7.28576 12.6055 6.52451 11.2199 6.42701 9.37117C6.36888 8.27992 6.81701 6.42554 7.13576 5.12617C7.46201 3.80242 7.85576 2.81242 7.85951 2.80117C7.85951 2.80117 7.91201 2.65117 7.96826 2.67929C8.08638 2.73929 7.96826 3.26054 7.96826 3.26054C7.87826 3.59429 7.79201 3.90929 7.47326 5.21429C7.16013 6.49117 6.74951 8.30804 6.80388 9.34867C6.89576 11.0793 7.61013 12.3805 9.12326 13.5637C9.89201 14.1655 10.8689 14.4018 11.002 14.4655C11.1351 14.5293 11.3076 14.5593 11.2833 14.7299C11.257 14.9062 10.9851 14.818 10.9851 14.818Z" fill="#D4D4D4"/>
<path d="M12.8676 14.8658C12.727 14.8789 12.5901 14.8545 12.5789 14.7177C12.5639 14.5489 12.7739 14.5377 12.7739 14.5377C12.9126 14.487 13.6233 14.4289 14.3264 14.007C16.3083 12.8183 17.2683 10.9527 17.1445 8.53391C16.972 5.19828 15.6633 2.65766 15.6501 2.63328L15.8976 2.26953C15.9108 2.29578 17.3414 5.09703 17.5195 8.51516C17.6526 11.082 16.6945 13.0714 14.5851 14.3352C13.8164 14.7964 12.9408 14.8583 12.8676 14.8658Z" fill="#9E9E9E"/>
<path d="M12.2116 4.10898C12.1648 4.10898 12.1179 4.10898 12.071 4.10711C10.421 4.08273 9.01102 3.61773 8.32852 2.95773C8.08477 2.72336 8.05102 2.56023 8.03789 2.30148C8.01352 1.85711 8.54227 0.74711 11.9866 0.76586C14.2573 0.77711 15.9429 1.48023 15.9523 2.36148C15.956 2.62773 15.9091 2.84523 15.656 3.09648C15.0091 3.73211 13.7266 4.10898 12.2116 4.10898ZM11.8179 1.23273C9.56039 1.25148 8.59289 1.87398 8.60227 2.27711C8.60414 2.38023 8.61164 2.43836 8.73539 2.56586C9.18539 3.03461 10.3948 3.51836 12.0804 3.54273C13.7604 3.57086 14.8273 3.12086 15.2623 2.69148C15.4029 2.55461 15.4741 2.50961 15.4741 2.40086C15.4741 1.97523 14.561 1.28711 12.146 1.23461C12.0354 1.23461 11.9248 1.23273 11.8179 1.23273Z" fill="#C8C8C8"/>
<path d="M12.2469 3.70269C12.095 3.70269 11.9356 3.69894 11.7706 3.68957C9.14565 3.55082 8.63565 2.49894 8.61127 2.45019C8.56627 2.35644 8.54565 2.17457 8.6169 2.15394C8.71252 2.12582 8.76315 2.21019 8.86065 2.30019C9.01815 2.44644 9.58627 3.20582 11.9581 3.26019C14.2831 3.31457 15.0313 2.60582 15.1681 2.48207C15.2713 2.38832 15.38 2.19332 15.4663 2.24957C15.5525 2.30582 15.5075 2.53082 15.4569 2.61894C15.3781 2.75394 14.7913 3.70269 12.2469 3.70269Z" fill="white"/>
<path d="M11.9613 14.9512C11.5582 14.9512 11.6407 15.2605 11.6201 17.3174C11.6051 18.958 11.7757 19.2505 11.9444 19.2674C12.1151 19.2824 12.2688 19.1587 12.2688 17.4262C12.2707 15.4162 12.3326 14.9512 11.9613 14.9512Z" fill="#9E9E9E"/>
<path d="M12.5824 18.758C12.4287 18.7711 12.5956 19.1068 12.3874 19.373C12.2224 19.583 11.9131 19.7086 11.9262 19.9449C11.9393 20.183 13.1543 20.0293 13.1543 19.5811C13.1543 19.4068 13.0268 19.2849 12.9031 19.1199C12.7793 18.9549 12.6593 18.7505 12.5824 18.758Z" fill="white"/>
<path d="M9.77734 20.448C9.77734 20.448 10.3117 21.1642 11.958 21.1792C13.6192 21.1942 14.0298 20.6917 14.0917 20.493C14.1367 20.343 13.5742 19.5574 13.5048 19.5705C13.4355 19.5836 13.2536 20.313 11.9692 20.2661C10.6848 20.2192 10.6511 19.7149 10.548 19.6192C10.4655 19.5424 9.77734 20.448 9.77734 20.448Z" fill="#9E9E9E"/>
<path d="M8.23936 20.0994C7.82311 20.1537 7.80436 20.6375 8.07249 21.0762C8.61624 21.9706 10.4219 22.5819 10.5156 22.0962C10.6 21.6631 9.65124 21.5525 9.74686 20.825C9.81624 20.2944 10.7669 19.805 10.5006 19.5256C10.2362 19.2462 9.83124 19.9025 9.28561 20.0281C8.80936 20.1387 8.55999 20.0581 8.23936 20.0994Z" fill="white"/>
<path d="M14.2716 19.3892C14.0391 19.5748 14.7329 19.7661 14.7047 20.338C14.6766 20.9098 14.1047 21.1573 14.2154 21.3148C14.3822 21.553 15.3666 21.0486 15.3329 20.2667C15.3047 19.6273 14.4816 19.2223 14.2716 19.3892Z" fill="#CACACA"/>
<path d="M14.0213 22.0285C14.1057 22.2929 15.2157 22.1785 15.7388 21.4285C16.2826 20.6466 15.9057 19.9904 15.6976 20.0597C15.4876 20.1291 15.7819 20.6185 15.2513 21.1341C14.7188 21.6497 13.9275 21.7322 14.0213 22.0285Z" fill="white"/>
<path d="M7.46143 20.538C7.41268 20.493 7.32455 20.9355 7.47268 21.2992C7.5983 21.6067 8.24143 23.2117 12.0946 23.2399C16.3808 23.2717 16.6002 21.4342 16.5458 20.9205C16.5102 20.5811 16.4446 20.4649 16.4108 20.4649C16.3789 20.463 16.3452 20.7649 16.3171 20.928C16.2271 21.438 15.7246 22.7242 12.1639 22.7524C8.92393 22.7786 7.97518 21.453 7.8083 21.2167C7.69018 21.048 7.48955 20.5642 7.46143 20.538Z" fill="#9E9E9E"/>
<path d="M8.4543 3.76562C8.4543 3.76562 8.18992 4.51 7.85617 6.0025C7.5693 7.285 7.45117 8.10063 7.45117 8.10063C7.45117 8.10063 8.05492 7.80062 8.72805 7.62437C9.33742 7.465 9.8643 7.49687 9.8643 7.49687C9.8643 7.49687 9.84742 6.52 9.92805 5.815C9.99367 5.23375 10.1362 4.48563 10.1362 4.48563C10.1362 4.48563 9.60742 4.35812 9.2868 4.21375C8.96617 4.06937 8.4543 3.76562 8.4543 3.76562Z" fill="white"/>
</svg>
