<svg width="24" height="25" viewBox="0 0 24 25" fill="none" xmlns="http://www.w3.org/2000/svg">
<path d="M7 10.9844V22.9844" stroke="#16AC7A" stroke-width="2" stroke-linecap="round" stroke-linejoin="round"/>
<path d="M15 6.86438L14 10.9844H19.83C20.1405 10.9844 20.4467 11.0567 20.7244 11.1955C21.0021 11.3344 21.2437 11.536 21.43 11.7844C21.6163 12.0328 21.7422 12.3211 21.7977 12.6266C21.8533 12.9321 21.8369 13.2463 21.75 13.5444L19.42 21.5444C19.2988 21.9598 19.0462 22.3247 18.7 22.5844C18.3538 22.844 17.9327 22.9844 17.5 22.9844H4C3.46957 22.9844 2.96086 22.7737 2.58579 22.3986C2.21071 22.0235 2 21.5148 2 20.9844V12.9844C2 12.4539 2.21071 11.9452 2.58579 11.5702C2.96086 11.1951 3.46957 10.9844 4 10.9844H6.76C7.13208 10.9842 7.49674 10.8802 7.81296 10.6841C8.12917 10.488 8.38442 10.2076 8.55 9.87438L12 2.98438C12.4716 2.99021 12.9357 3.10254 13.3578 3.31297C13.7799 3.5234 14.1489 3.82648 14.4374 4.19958C14.7259 4.57267 14.9263 5.00614 15.0237 5.46758C15.1212 5.92902 15.113 6.40651 15 6.86438Z" stroke="#16AC7A" stroke-width="2" stroke-linecap="round" stroke-linejoin="round"/>
</svg>
