<svg width="20" height="20" viewBox="0 0 20 20" fill="none" xmlns="http://www.w3.org/2000/svg">
<path d="M6.58268 16.6674C8.17316 17.4832 10.0028 17.7042 11.7418 17.2905C13.4808 16.8768 15.0148 15.8555 16.0675 14.4108C17.1201 12.9661 17.6222 11.1929 17.4832 9.41082C17.3441 7.6287 16.5732 5.95483 15.3092 4.69085C14.0452 3.42687 12.3713 2.6559 10.5892 2.51687C8.80709 2.37784 7.03391 2.8799 5.5892 3.93256C4.14449 4.98523 3.12326 6.51928 2.70953 8.25828C2.29581 9.99729 2.5168 11.8269 3.33268 13.4174L1.66602 18.334L6.58268 16.6674Z" stroke="#7B7B75" stroke-linecap="round" stroke-linejoin="round"/>
<path d="M12.5 8.5L6.8125 8.5" stroke="#7B7B75" stroke-linecap="round" stroke-linejoin="round"/>
<path d="M13.5332 11.5L6.8125 11.5" stroke="#7B7B75" stroke-linecap="round" stroke-linejoin="round"/>
</svg>
