<svg width="101" height="40" viewBox="0 0 101 40" fill="none" xmlns="http://www.w3.org/2000/svg">
<path d="M0.526693 1.74967H17.4479V2.36841C15.8697 2.36841 14.7936 2.48499 14.2197 2.71814C13.7355 2.93335 13.3409 3.28307 13.036 3.7673C12.7311 4.25154 12.5787 4.79854 12.5787 5.40831C12.5787 6.16156 12.8656 7.20176 13.4395 8.52892L14.139 10.1968L22.5054 30.6422L28.3431 13.0215C29.0964 10.7618 29.473 9.07592 29.473 7.96398C29.473 7.13899 29.3205 6.34091 29.0157 5.56972C28.7287 4.7806 28.3431 4.14393 27.8589 3.6597C27.3926 3.1934 26.8546 2.86161 26.2448 2.66433C25.6529 2.46705 24.8907 2.36841 23.9581 2.36841V1.74967H41.256V2.36841C40.1978 2.36841 39.4266 2.40428 38.9424 2.47602C38.4761 2.54776 38.0367 2.7002 37.6242 2.93335C37.0862 3.25617 36.6468 3.72247 36.306 4.33224C35.9832 4.92408 35.8218 5.56972 35.8218 6.26917C35.8218 6.91481 36.0729 8.03572 36.5751 9.63189L43.1929 30.965L50.5909 12.8063C51.7387 10.0264 52.3126 7.87431 52.3126 6.34987C52.3126 4.7537 51.7835 3.62383 50.7254 2.96025C50.0797 2.56569 49.1023 2.36841 47.7931 2.36841V1.74967H60.2486V2.36841C59.047 2.49395 58.1323 2.7271 57.5046 3.06786C56.8949 3.39068 56.2851 3.99149 55.6753 4.87028C54.7786 6.12569 53.6577 8.39441 52.3126 11.6764L41.256 38.4706H40.153L30.576 9.8202L20.8644 38.4706H19.6538L7.62876 9.52428L6.82171 7.56045C6.26574 6.2333 5.79944 5.2738 5.42281 4.68196C5.04619 4.09013 4.58886 3.62383 4.05082 3.28307C3.6204 2.99612 3.1541 2.78987 2.65193 2.66433C2.14977 2.53879 1.44135 2.44015 0.526693 2.36841V1.74967ZM60.1012 38.4706V37.8249C61.9126 37.8249 63.3115 37.3138 64.2979 36.2915C64.8538 35.7176 65.2305 34.9913 65.4277 34.1125C65.643 33.2158 65.7506 31.8527 65.7506 30.0234V10.1968C65.7506 8.29577 65.634 6.89688 65.4008 6.00015C65.1856 5.08549 64.7731 4.34121 64.1634 3.7673C63.6612 3.30101 63.0963 2.96025 62.4685 2.74504C61.8588 2.52982 61.0697 2.40428 60.1012 2.36841V1.74967H77.2914V2.36841C76.305 2.42222 75.498 2.55673 74.8703 2.77194C74.2425 2.98715 73.6866 3.32791 73.2023 3.79421C72.5926 4.38605 72.1801 5.13033 71.9649 6.02705C71.7497 6.92378 71.642 8.3137 71.642 10.1968V25.7191C71.642 28.1044 71.7048 29.88 71.8304 31.0457C71.9559 32.2114 72.198 33.162 72.5567 33.8973C73.1844 35.1886 74.117 36.1391 75.3545 36.7489C76.592 37.3407 78.233 37.6366 80.2775 37.6366C82.4117 37.6366 84.2052 37.3586 85.6579 36.8027C87.1285 36.2288 88.3301 35.35 89.2627 34.1663C89.8904 33.3592 90.4015 32.4446 90.7961 31.4223C91.2086 30.4001 91.5852 29.055 91.926 27.3871L92.5716 27.4409L92.2219 38.4706H60.1012Z" fill="#02402B"/>
<path d="M83.5277 6.8148C81.9832 6.79357 80.7293 7.99561 80.7078 9.52117C80.7001 10.0679 80.8525 10.5773 81.1213 11.0074C81.425 10.9452 81.7347 10.9158 82.0448 10.9197C83.106 10.9343 84.0738 11.3336 84.8167 11.9793C85.6718 11.5224 86.2534 10.6333 86.268 9.5976C86.2895 8.07203 85.0724 6.83603 83.5277 6.8148ZM78.7594 8.24974C77.2149 8.22851 75.9609 9.43063 75.9394 10.9563C75.9213 12.239 76.78 13.3202 77.9721 13.6442C78.3098 12.782 78.9245 12.0558 79.7061 11.5701C79.4354 11.0782 79.2668 10.5379 79.21 9.98086C79.1533 9.42382 79.2096 8.86119 79.3757 8.3259C79.1737 8.27835 78.9671 8.25286 78.7594 8.24974ZM89.7113 9.33882C88.1669 9.31759 86.913 10.5197 86.8915 12.0453C86.8876 12.3259 86.9252 12.5971 86.9995 12.8523C87.3429 12.7719 87.695 12.7338 88.0479 12.7388C89.3648 12.7569 90.5385 13.3657 91.3158 14.3043C91.9954 13.8138 92.4389 13.0243 92.4516 12.1217C92.4731 10.5963 91.256 9.36005 89.7113 9.33882ZM82.0236 12.4199C80.4791 12.3987 79.225 13.6035 79.2035 15.129C79.1821 16.6546 80.4019 17.8934 81.9462 17.9146C83.4906 17.9358 84.7448 16.7311 84.7663 15.2055C84.7878 13.6799 83.5682 12.4412 82.0236 12.4199ZM93.9765 13.1489C93.9282 13.1482 93.8794 13.1477 93.8318 13.1495C93.563 14.1686 92.9184 15.038 92.0568 15.6093C92.2174 16.0704 92.2956 16.5555 92.288 17.043C92.2833 17.3761 92.2362 17.6993 92.1576 18.0098C92.6287 18.3969 93.2333 18.6318 93.899 18.641C95.4436 18.6622 96.6976 17.4575 96.7191 15.9319C96.7405 14.4063 95.5211 13.1701 93.9765 13.1489ZM88.0266 14.239C87.3625 14.2299 86.7518 14.4479 86.2705 14.8195C86.2816 14.954 86.2871 15.0889 86.2851 15.2264C86.2713 16.2061 85.9188 17.1053 85.3392 17.8181C85.6887 18.9174 86.7132 19.714 87.9491 19.731C88.3147 19.7374 88.678 19.6723 89.0181 19.5394C89.3581 19.4064 89.6681 19.2083 89.9303 18.9565C90.1924 18.7047 90.4015 18.4041 90.5455 18.0721C90.6895 17.74 90.7655 17.3831 90.7692 17.0219C90.7907 15.4964 89.5711 14.2602 88.0266 14.239ZM76.2894 14.9685C74.7449 14.9473 73.4935 16.152 73.472 17.6777C73.4585 18.6376 73.9363 19.4825 74.6767 19.9828C75.0555 18.3708 76.3678 17.1116 78.0091 16.7813C77.8195 16.3301 77.7111 15.8497 77.6887 15.3617C77.2658 15.1103 76.7829 14.9746 76.2894 14.9685ZM78.904 18.194C77.3593 18.1728 76.1054 19.3748 76.0839 20.9004C76.0774 21.2615 76.1434 21.6204 76.2779 21.9562C76.4125 22.2921 76.6131 22.5983 76.868 22.8573C77.123 23.1162 77.4273 23.3227 77.7635 23.465C78.0996 23.6072 78.4609 23.6823 78.8266 23.6859C80.3709 23.7072 81.6224 22.5024 81.6439 20.9768C81.6526 20.3583 81.4587 19.7877 81.121 19.3259C80.3115 19.1611 79.5673 18.7693 78.9775 18.1974C78.9531 18.1964 78.9285 18.1943 78.904 18.194ZM84.1281 18.8452C83.7277 19.0747 83.2921 19.2382 82.8384 19.3294C83.0537 19.8443 83.1712 20.4073 83.1629 20.9977C83.1506 21.8674 82.871 22.6746 82.4032 23.3435C82.9019 23.8818 83.6176 24.221 84.4207 24.232C84.7863 24.2384 85.1495 24.1732 85.4896 24.0403C85.8296 23.9074 86.1396 23.7093 86.4017 23.4574C86.6638 23.2056 86.8729 22.905 87.0169 22.573C87.1609 22.241 87.2369 21.8841 87.2406 21.5229C87.2423 21.4003 87.2341 21.2797 87.2202 21.1613C85.8587 20.9165 84.72 20.0345 84.1281 18.8452ZM91.5206 19.4011C90.883 20.3058 89.8982 20.9533 88.7649 21.1599C89.1584 22.1789 90.1457 22.9027 91.3237 22.9189C92.8683 22.9401 94.1223 21.738 94.1438 20.2125C94.1441 20.1873 94.1426 20.1621 94.1423 20.1371C94.0548 20.1412 93.9666 20.1423 93.878 20.141C93.0046 20.129 92.1942 19.857 91.5206 19.4011ZM88.3775 23.2223C87.9915 24.0635 87.3412 24.7594 86.5231 25.2068C86.8302 26.374 87.8891 27.233 89.1745 27.2507C90.7191 27.2719 91.9706 26.0698 91.9921 24.5441C91.9929 24.4871 91.9919 24.4297 91.9893 24.3735C91.7653 24.4061 91.536 24.4225 91.3028 24.4193C90.1675 24.4037 89.1382 23.9484 88.3775 23.2223ZM81.3443 24.4053C80.8631 24.7424 80.3166 24.9776 79.739 25.0959C79.667 25.3367 79.6285 25.5861 79.6245 25.8371C79.603 27.3629 80.82 28.599 82.3645 28.6203C83.909 28.6415 85.1631 27.4393 85.1846 25.9136C85.1857 25.8328 85.1834 25.7517 85.1777 25.6726C84.9248 25.7153 84.6647 25.7359 84.3994 25.7322C83.1985 25.7157 82.115 25.2071 81.3443 24.4053ZM76.3626 24.3871C76.1473 24.7713 76.0232 25.212 76.0165 25.6848C75.995 27.2103 77.2147 28.4465 78.7592 28.4678C78.8399 28.4689 78.9191 28.4664 78.998 28.461C78.4263 27.7285 78.0915 26.8085 78.1055 25.8163C78.1088 25.5824 78.1332 25.3534 78.1737 25.1299C77.5198 25.0244 76.8998 24.77 76.3626 24.3871ZM86.3136 27.633C86.2126 27.8501 86.0933 28.0583 85.9569 28.2555C86.775 28.9833 87.3096 30.015 87.3766 31.1633C88.8003 31.1298 89.9508 30.0536 90.0743 28.6635C89.7767 28.7238 89.4689 28.7556 89.1533 28.7512C88.06 28.7362 87.065 28.3129 86.3136 27.633ZM84.9001 29.325C84.1794 29.8363 83.2943 30.1335 82.3434 30.1204C81.8197 30.1134 81.3018 30.011 80.8157 29.8184C80.5022 30.256 80.3142 30.7885 80.3061 31.3697C80.2846 32.8953 81.5016 34.134 83.0461 34.1552C83.4118 34.1616 83.7751 34.0965 84.1151 33.9636C84.4551 33.8306 84.7651 33.6325 85.0273 33.3807C85.2894 33.1289 85.4985 32.8283 85.6425 32.4962C85.7865 32.1642 85.8625 31.8073 85.8662 31.4461C85.8782 30.5943 85.5022 29.8354 84.9001 29.325Z" fill="#02402B"/>
<path d="M77.2852 2.37108C77.2605 2.37005 77.254 1.75122 77.2852 1.74998C78.1911 1.71401 81.9051 2.12114 83.6724 3.11077C86.5658 4.73099 87.8962 6.1152 88.3877 7.74264C88.3946 7.76561 86.4629 7.55428 86.4629 7.55428C86.4629 7.55428 84.8388 2.68667 77.2852 2.37108Z" fill="#02402B"/>
</svg>
