<svg width="101" height="42" viewBox="0 0 101 42" fill="none" xmlns="http://www.w3.org/2000/svg">
<path d="M0.0266928 2.50175H16.9479V3.12049C15.3697 3.12049 14.2936 3.23706 13.7197 3.47021C13.2355 3.68542 12.8409 4.03515 12.536 4.51938C12.2311 5.00361 12.0787 5.55061 12.0787 6.16039C12.0787 6.91364 12.3656 7.95384 12.9395 9.28099L13.639 10.9489L22.0054 31.3942L27.8431 13.7736C28.5964 11.5138 28.973 9.82799 28.973 8.71605C28.973 7.89107 28.8205 7.09298 28.5157 6.3218C28.2287 5.53268 27.8431 4.896 27.3589 4.41177C26.8926 3.94548 26.3546 3.61369 25.7448 3.41641C25.1529 3.21913 24.3907 3.12049 23.4581 3.12049V2.50175H40.756V3.12049C39.6978 3.12049 38.9266 3.15636 38.4424 3.22809C37.9761 3.29983 37.5367 3.45228 37.1242 3.68542C36.5862 4.00825 36.1468 4.47454 35.806 5.08432C35.4832 5.67616 35.3218 6.3218 35.3218 7.02124C35.3218 7.66689 35.5729 8.78779 36.0751 10.384L42.6929 31.7171L50.0909 13.5584C51.2387 10.7785 51.8126 8.62638 51.8126 7.10195C51.8126 5.50578 51.2835 4.3759 50.2254 3.71233C49.5797 3.31777 48.6023 3.12049 47.2931 3.12049V2.50175H59.7486V3.12049C58.547 3.24603 57.6323 3.47918 57.0046 3.81993C56.3949 4.14275 55.7851 4.74356 55.1753 5.62235C54.2786 6.87777 53.1577 9.14648 51.8126 12.4285L40.756 39.2227H39.653L30.076 10.5723L20.3644 39.2227H19.1538L7.12876 10.2764L6.32171 8.31253C5.76574 6.98537 5.29944 6.02588 4.92281 5.43404C4.54619 4.8422 4.08886 4.3759 3.55082 4.03515C3.1204 3.7482 2.6541 3.54195 2.15193 3.41641C1.64977 3.29087 0.941353 3.19223 0.0266928 3.12049V2.50175ZM59.6012 39.2227V38.577C61.4126 38.577 62.8115 38.0659 63.7979 37.0436C64.3538 36.4697 64.7305 35.7434 64.9277 34.8646C65.143 33.9678 65.2506 32.6048 65.2506 30.7755V10.9489C65.2506 9.04784 65.134 7.64895 64.9008 6.75223C64.6856 5.83757 64.2731 5.09328 63.6634 4.51938C63.1612 4.05308 62.5963 3.71233 61.9685 3.49711C61.3588 3.2819 60.5697 3.15636 59.6012 3.12049V2.50175H76.7914V3.12049C75.805 3.17429 74.998 3.3088 74.3703 3.52401C73.7425 3.73923 73.1866 4.07998 72.7023 4.54628C72.0926 5.13812 71.6801 5.8824 71.4649 6.77913C71.2497 7.67585 71.142 9.06578 71.142 10.9489V26.4712C71.142 28.8565 71.2048 30.632 71.3304 31.7978C71.4559 32.9635 71.698 33.914 72.0567 34.6494C72.6844 35.9406 73.617 36.8912 74.8545 37.5009C76.092 38.0928 77.733 38.3887 79.7775 38.3887C81.9117 38.3887 83.7052 38.1107 85.1579 37.5547C86.6285 36.9808 87.8301 36.1021 88.7627 34.9184C89.3904 34.1113 89.9015 33.1967 90.2961 32.1744C90.7086 31.1521 91.0852 29.807 91.426 28.1391L92.0716 28.1929L91.7219 39.2227H59.6012Z" fill="#02402B"/>
<path d="M86.0907 8.28345C86.0228 6.49882 81.5038 3.35987 77.3701 3.28603" stroke="#872031" stroke-width="0.423585" stroke-linecap="square" stroke-linejoin="round"/>
<path d="M87.406 7.79996C86.5321 5.79799 81.4221 3.08402 77.3675 3.08402" stroke="#872031" stroke-width="0.423585" stroke-linecap="square" stroke-linejoin="round"/>
<path d="M83.748 5.09375C84.9405 5.78213 87.5932 7.32488 87.5932 8.49579" stroke="#872031" stroke-width="0.56478"/>
<path d="M81.6777 3.94531C83.3388 4.60385 87.1522 6.33227 87.1522 8.49373" stroke="#872031" stroke-width="0.56478"/>
<path d="M84.7207 5.75C85.2951 6.42367 86.5671 8.12667 86.1284 8.1909" stroke="#872031" stroke-width="0.56478"/>
<path d="M85.2598 6.04883C85.8342 6.72249 86.6674 7.94898 86.6674 8.48973" stroke="#872031" stroke-width="0.56478"/>
<path d="M84.9805 6.04883C85.5549 6.72249 86.3882 7.94898 86.3882 8.48973" stroke="#872031" stroke-width="0.56478"/>
<g clip-path="url(#clip0_2025_514)">
<path d="M83.0277 7.65144C81.4832 7.62995 80.2293 8.84689 80.2078 10.3914C80.2001 10.9449 80.3525 11.4605 80.6213 11.8961C80.925 11.8331 81.2347 11.8033 81.5448 11.8073C82.606 11.822 83.5738 12.2263 84.3167 12.8799C85.1718 12.4174 85.7534 11.5173 85.768 10.4687C85.7895 8.92426 84.5724 7.67294 83.0277 7.65144ZM78.2594 9.10418C76.7149 9.08269 75.4609 10.2997 75.4394 11.8443C75.4213 13.1429 76.28 14.2375 77.4721 14.5655C77.8098 13.6926 78.4245 12.9574 79.2061 12.4657C78.9354 11.9677 78.7668 11.4207 78.71 10.8568C78.6533 10.2928 78.7096 9.7232 78.8757 9.18129C78.6737 9.13314 78.4671 9.10734 78.2594 9.10418ZM89.2113 10.2068C87.6669 10.1853 86.413 11.4023 86.3915 12.9468C86.3876 13.2308 86.4252 13.5054 86.4995 13.7638C86.8429 13.6824 87.195 13.6438 87.5479 13.6489C88.8648 13.6672 90.0385 14.2835 90.8158 15.2338C91.4954 14.7372 91.9389 13.9379 91.9516 13.0241C91.9731 11.4798 90.756 10.2283 89.2113 10.2068ZM81.5236 13.3261C79.9791 13.3046 78.725 14.5243 78.7035 16.0688C78.6821 17.6132 79.9019 18.8674 81.4462 18.8889C82.9906 18.9103 84.2448 17.6906 84.2663 16.1462C84.2878 14.6017 83.0682 13.3476 81.5236 13.3261ZM93.4765 14.0641C93.4282 14.0634 93.3794 14.0629 93.3318 14.0647C93.063 15.0964 92.4184 15.9766 91.5568 16.555C91.7174 17.0218 91.7956 17.5129 91.788 18.0064C91.7833 18.3437 91.7362 18.6709 91.6576 18.9852C92.1287 19.3771 92.7333 19.615 93.399 19.6243C94.9436 19.6457 96.1976 18.426 96.2191 16.8816C96.2405 15.3371 95.0211 14.0856 93.4765 14.0641ZM87.5266 15.1677C86.8625 15.1585 86.2518 15.3792 85.7705 15.7554C85.7816 15.8916 85.7871 16.0282 85.7851 16.1673C85.7713 17.1592 85.4188 18.0696 84.8392 18.7912C85.1887 19.9041 86.2132 20.7106 87.4491 20.7278C87.8147 20.7343 88.178 20.6683 88.5181 20.5338C88.8581 20.3992 89.1681 20.1986 89.4303 19.9437C89.6924 19.6887 89.9015 19.3844 90.0455 19.0483C90.1895 18.7121 90.2655 18.3508 90.2692 17.9851C90.2907 16.4406 89.0711 15.1892 87.5266 15.1677ZM75.7894 15.9063C74.2449 15.8848 72.9935 17.1044 72.972 18.649C72.9585 19.6208 73.4363 20.4762 74.1767 20.9827C74.5555 19.3507 75.8678 18.0759 77.5091 17.7415C77.3195 17.2847 77.2111 16.7983 77.1887 16.3043C76.7658 16.0497 76.2829 15.9124 75.7894 15.9063ZM78.404 19.1717C76.8593 19.1502 75.6054 20.3672 75.5839 21.9116C75.5774 22.2773 75.6434 22.6406 75.7779 22.9806C75.9125 23.3206 76.1131 23.6306 76.368 23.8928C76.623 24.1549 76.9273 24.364 77.2635 24.508C77.5996 24.652 77.9609 24.728 78.3266 24.7317C79.8709 24.7532 81.1224 23.5336 81.1439 21.989C81.1526 21.3628 80.9587 20.7851 80.621 20.3176C79.8115 20.1508 79.0673 19.7542 78.4775 19.1752C78.4531 19.1742 78.4285 19.172 78.404 19.1717ZM83.6281 19.831C83.2277 20.0633 82.7921 20.2288 82.3384 20.3212C82.5537 20.8424 82.6712 21.4124 82.6629 22.0101C82.6506 22.8906 82.371 23.7078 81.9032 24.385C82.4019 24.93 83.1176 25.2734 83.9207 25.2846C84.2863 25.291 84.6495 25.2251 84.9896 25.0905C85.3296 24.9559 85.6396 24.7553 85.9017 24.5004C86.1638 24.2454 86.3729 23.9411 86.5169 23.605C86.6609 23.2689 86.7369 22.9075 86.7406 22.5419C86.7423 22.4178 86.7341 22.2956 86.7202 22.1758C85.3587 21.928 84.22 21.035 83.6281 19.831ZM91.0206 20.3938C90.383 21.3096 89.3982 21.9652 88.2649 22.1744C88.6584 23.206 89.6457 23.9388 90.8237 23.9552C92.3683 23.9767 93.6223 22.7597 93.6438 21.2152C93.6441 21.1898 93.6426 21.1642 93.6423 21.1389C93.5548 21.1431 93.4666 21.1441 93.378 21.1429C92.5046 21.1307 91.6942 20.8553 91.0206 20.3938ZM87.8775 24.2624C87.4915 25.114 86.8412 25.8185 86.0231 26.2714C86.3302 27.4531 87.3891 28.3228 88.6745 28.3407C90.2191 28.3622 91.4706 27.1451 91.4921 25.6006C91.4929 25.5429 91.4919 25.4847 91.4893 25.4278C91.2653 25.4608 91.036 25.4774 90.8028 25.4742C89.6675 25.4584 88.6382 24.9974 87.8775 24.2624ZM80.8443 25.46C80.3631 25.8013 79.8166 26.0394 79.239 26.1592C79.167 26.403 79.1285 26.6554 79.1245 26.9096C79.103 28.4542 80.32 29.7057 81.8645 29.7272C83.409 29.7487 84.6631 28.5316 84.6846 26.987C84.6857 26.9052 84.6834 26.8231 84.6777 26.743C84.4248 26.7862 84.1646 26.8071 83.8994 26.8034C82.6985 26.7867 81.615 26.2718 80.8443 25.46ZM75.8626 25.4415C75.6473 25.8305 75.5232 26.2768 75.5165 26.7553C75.495 28.2998 76.7147 29.5513 78.2592 29.5728C78.3399 29.574 78.4191 29.5715 78.498 29.566C77.9263 28.8244 77.5915 27.893 77.6055 26.8885C77.6088 26.6517 77.6332 26.4199 77.6737 26.1936C77.0198 26.0868 76.3998 25.8292 75.8626 25.4415ZM85.8136 28.7278C85.7126 28.9475 85.5933 29.1583 85.4569 29.358C86.275 30.0948 86.8096 31.1393 86.8766 32.3018C88.3003 32.2679 89.4508 31.1783 89.5743 29.771C89.2767 29.8321 88.9689 29.8642 88.6533 29.8598C87.56 29.8446 86.565 29.4161 85.8136 28.7278ZM84.4001 30.4408C83.6794 30.9583 82.7943 31.2592 81.8434 31.246C81.3197 31.2389 80.8018 31.1352 80.3157 30.9402C80.0022 31.3832 79.8142 31.9224 79.8061 32.5107C79.7846 34.0553 81.0016 35.3093 82.5461 35.3308C82.9118 35.3373 83.2751 35.2713 83.6151 35.1368C83.9551 35.0022 84.2651 34.8016 84.5273 34.5467C84.7894 34.2917 84.9985 33.9874 85.1425 33.6513C85.2865 33.3151 85.3625 32.9538 85.3662 32.5881C85.3782 31.7257 85.0022 30.9574 84.4001 30.4408Z" fill="#872031"/>
</g>
<defs>
<clipPath id="clip0_2025_514">
<rect width="30.6715" height="26.7951" fill="white" transform="translate(100.096 8.4082) rotate(98.6743)"/>
</clipPath>
</defs>
</svg>
