<svg xmlns="http://www.w3.org/2000/svg" xmlns:xlink="http://www.w3.org/1999/xlink"><symbol fill="currentColor" viewBox="0 0 24 24" id="icon_check"><path fill-rule="evenodd" clip-rule="evenodd" d="M20.53 6.47a.75.75 0 0 1 0 1.06l-11 11a.75.75 0 0 1-1.06 0l-5-5a.75.75 0 1 1 1.06-1.06L9 16.94 19.47 6.47a.75.75 0 0 1 1.06 0Z"/></symbol><symbol class="bbi bbi-chevron-down" viewBox="0 0 16 16" fill="currentColor" id="icon_chevron_down"><path fill-rule="evenodd" d="M1.646 4.646a.5.5 0 0 1 .708 0L8 10.293l5.646-5.647a.5.5 0 0 1 .708.708l-6 6a.5.5 0 0 1-.708 0l-6-6a.5.5 0 0 1 0-.708"/></symbol><symbol class="cbi cbi-chevron-up" fill="currentColor" viewBox="0 0 16 16" id="icon_chevron_up"><path fill-rule="evenodd" d="M7.646 4.646a.5.5 0 0 1 .708 0l6 6a.5.5 0 0 1-.708.708L8 5.707l-5.646 5.647a.5.5 0 0 1-.708-.708z"/></symbol></svg>