<svg xmlns="http://www.w3.org/2000/svg" xmlns:xlink="http://www.w3.org/1999/xlink"><symbol fill="currentColor" viewBox="0 0 24 24" id="icon_check"><path fill-rule="evenodd" clip-rule="evenodd" d="M20.53 6.47a.75.75 0 0 1 0 1.06l-11 11a.75.75 0 0 1-1.06 0l-5-5a.75.75 0 1 1 1.06-1.06L9 16.94 19.47 6.47a.75.75 0 0 1 1.06 0Z"/></symbol><symbol fill="currentColor" viewBox="0 0 32 32" id="icon_chevron_up"><path fill-rule="evenodd" clip-rule="evenodd" d="M15.116 9.616a1.25 1.25 0 0 1 1.768 0l11 11a1.25 1.25 0 0 1-1.768 1.768L16 12.268 5.884 22.384a1.25 1.25 0 0 1-1.768-1.768l11-11Z"/></symbol></svg>